<svg aria-hidden="true" style="position:absolute;width:0;height:0;overflow:hidden" xmlns="http://www.w3.org/2000/svg"><defs><symbol id="icon-Frame-1" viewBox="0 0 32 32"><path fill="none" stroke="#4985ff" style="stroke:var(--color1, #4985ff)" stroke-width=".356" d="M31.822 16c0 8.738-7.084 15.822-15.822 15.822S.178 24.738.178 16 7.262.178 16 .178 31.822 7.262 31.822 16z"/><path fill="#4985ff" style="fill:var(--color1, #4985ff)" d="M22.874 8.889H12.207a.237.237 0 0 0-.237.237v3.556h.474V9.363h10.193V22.4a.233.233 0 0 1-.218.237l-.061-.002c-.042-.001-.084-.002-.125-.006l-.01-.001a1.662 1.662 0 0 1-1.482-1.649v-.474a.237.237 0 0 0-.237-.237h-8.059v-4.267h-.474v4.267h-1.896a.237.237 0 0 0-.237.237v.474a2.135 2.135 0 0 0 2.133 2.133h10.453a.705.705 0 0 0 .687-.711V9.127a.237.237 0 0 0-.237-.237zM11.97 22.637a1.66 1.66 0 0 1-1.659-1.659v-.237h9.956v.237c0 .078.005.156.014.234.002.021.006.041.009.061.008.057.017.114.03.171.004.02.01.039.015.059a2.04 2.04 0 0 0 .14.389l.017.034a2.002 2.002 0 0 0 .112.199c.039.061.08.119.125.175l.008.01a2.25 2.25 0 0 0 .325.328l-9.088-.001z"/><path fill="#4985ff" style="fill:var(--color1, #4985ff)" d="M16.711 15.526a.24.24 0 0 0 .168-.069l.948-.948a.236.236 0 0 0 0-.335l-.948-.948a.238.238 0 0 0-.168-.069h-6.637a1.185 1.185 0 1 0 0 2.37h6.637zm-.061-1.859.674.674-.674.674-.169-.674.169-.674zm-5.865-.037h5.386l-.119.474h-4.793v.474h4.793l.119.474h-5.386V13.63zm-1.422.711a.71.71 0 0 1 .711-.711h.237v1.422h-.237a.71.71 0 0 1-.711-.711zM14.34 19.081h7.111a.237.237 0 0 0 .237-.237v-7.111a.237.237 0 0 0-.405-.168l-7.111 7.111a.237.237 0 0 0 .168.404zm6.875-6.775v.613h-.474v.474h.474v.474h-.474v.474h.474v.474h-.474v.474h.474v.474h-.474v.474h.474v.474h-.474v.474h.474v.474h-.474v.474h.474v.474h-.474v-.474h-.474v.474h-.474v-.474h-.474v.474h-.474v-.474h-.474v.474h-.474v-.474h-.474v.474h-.474v-.474h-.474v.474h-.474v-.474h-.474v.474h-.613l6.302-6.302z"/><path fill="#4985ff" style="fill:var(--color1, #4985ff)" d="M17.774 17.659h2.255a.237.237 0 0 0 .237-.237v-2.255a.237.237 0 0 0-.405-.168l-2.255 2.255a.236.236 0 0 0 .168.404zm2.019-1.92v1.446h-1.446l1.446-1.446zM19.793 10.311h-4.741v.474h4.741v-.474zM20.504 11.259h-6.163v.474h6.163v-.474zM14.341 16.237h-1.422v.474h1.422v-.474zM13.867 17.185h-.948v.474h.948v-.474z"/></symbol><symbol id="icon-play-button" viewBox="0 0 32 32"><path fill="#4985ff" style="fill:var(--color1, #4985ff)" d="M32 16c0 8.837-7.163 16-16 16S0 24.837 0 16 7.163 0 16 0s16 7.163 16 16z"/><path fill="#fff" style="fill:var(--color2, #fff)" d="M16 0C7.164 0 0 7.163 0 16s7.164 16 16 16 16-7.163 16-16S24.836 0 16 0zm5.53 16.848-8 5A1.002 1.002 0 0 1 12 21V11a1.002 1.002 0 0 1 1.53-.848l8 5a1 1 0 0 1 0 1.696z"/></symbol><symbol id="icon-web-programming" viewBox="0 0 32 32"><path fill="#4985ff" style="fill:var(--color1, #4985ff)" d="M12.626 22.425a.528.528 0 0 1-.342-.126l-3.419-2.911a.527.527 0 0 1 0-.804l3.419-2.911a.529.529 0 0 1 .685.805l-2.946 2.509 2.946 2.509a.529.529 0 0 1-.343.931zM19.374 22.425a.529.529 0 0 1-.342-.931l2.946-2.509-2.946-2.509a.529.529 0 0 1 .684-.805l3.419 2.911a.527.527 0 0 1 0 .804l-3.419 2.911a.523.523 0 0 1-.342.126zM14.79 24.609a.529.529 0 0 1-.518-.638l2.131-10.116a.529.529 0 0 1 1.034.218l-2.131 10.116a.528.528 0 0 1-.516.42z"/><path fill="#4985ff" style="fill:var(--color1, #4985ff)" d="M28.453 30.12H3.547A3.55 3.55 0 0 1 0 26.573V5.434a3.55 3.55 0 0 1 3.547-3.547h24.906A3.55 3.55 0 0 1 32 5.434v21.139a3.55 3.55 0 0 1-3.547 3.547zM3.547 2.944a2.494 2.494 0 0 0-2.491 2.491v21.139a2.494 2.494 0 0 0 2.491 2.491h24.906a2.494 2.494 0 0 0 2.491-2.491V5.435a2.494 2.494 0 0 0-2.491-2.491H3.547z"/><path fill="#4985ff" style="fill:var(--color1, #4985ff)" d="M31.472 10.346H.529a.527.527 0 1 1 0-1.056h30.943a.528.528 0 0 1 0 1.056zM9.026 7.818c-.922 0-1.672-.75-1.672-1.672s.75-1.672 1.672-1.672c.922 0 1.672.75 1.672 1.672s-.75 1.672-1.672 1.672zm0-2.287a.616.616 0 1 0 .002 1.232.616.616 0 0 0-.002-1.232zM3.891 7.802c-.922 0-1.672-.75-1.672-1.672s.75-1.672 1.672-1.672c.922 0 1.672.75 1.672 1.672s-.75 1.672-1.672 1.672zm0-2.287a.616.616 0 1 0 .002 1.232.616.616 0 0 0-.002-1.232zM14.163 7.834c-.921 0-1.672-.75-1.672-1.672s.75-1.672 1.672-1.672c.922 0 1.672.75 1.672 1.672s-.75 1.672-1.672 1.672zm0-2.287a.616.616 0 1 0 .002 1.232.616.616 0 0 0-.002-1.232z"/></symbol></defs></svg>